# xmcd
#
# Track frame offsets:
#	150
#	18889
#	38695
#	56069
#	81918
#	108013
#	133141
#	149857
#	163833
#	185557
#	208531
#	235173
#	255294
#	282938
#	297884
#	320905
#
# Disc length: 4515 seconds
#
# Revision: 1
# Processed by: cddbd v1.5.1PL0 Copyright (c) Steve Scherf et al.
# Submitted via: audiograbber 1.83.01
#
DISCID=ee11a110
DTITLE=Various Artist - Chill out in Paris 4 by Buddha-Bar
DYEAR=2005
DGENRE=A Cappella
TTITLE0=Bliss - Breathe
TTITLE1=My Phuong Nguyen and Thierry David - Huong Vietnam
TTITLE2=Riccardo Eberspacher - lights signs
TTITLE3=Al-Pha-X - an Indian summer
TTITLE4=Afterlife and Danni Minogue - take me inside
TTITLE5=Ustad Sultan Khan - Aja Maji
TTITLE6=Bigteteny's finest - Lovasok a Szakadek fele
TTITLE7=Erik Satie - Gynossienne ¹1 (Buddha Bar remix)
TTITLE8=Kirpi - the song
TTITLE9=Sainkho Namtchylak - Ohm Suaa (remixed by Martin Morales)
TTITLE10=Lonesome Echo ft. Mutabaraku - spirit of drums (SUMO Afrobounce remix)
TTITLE11=DJ Nasha - flute fantasy)
TTITLE12=Ryukyu Underground - Mo Ashibi (Jason Bentley remix)
TTITLE13=Supervielle - perfume (remixed by Campo)
TTITLE14=Mambayaga project - joy on a stick
TTITLE15=B-Tribe - angel voices (rebirth mix)
EXTD=
EXTT0=
EXTT1=
EXTT2=
EXTT3=
EXTT4=
EXTT5=
EXTT6=
EXTT7=
EXTT8=
EXTT9=
EXTT10=
EXTT11=
EXTT12=
EXTT13=
EXTT14=
EXTT15=
PLAYORDER=
